<?xml version="1.0" standalone="no"?>
<!DOCTYPE svg PUBLIC "-//W3C//DTD SVG 20010904//EN"
 "http://www.w3.org/TR/2001/REC-SVG-20010904/DTD/svg10.dtd">
<svg version="1.0" xmlns="http://www.w3.org/2000/svg"
 width="1000.000000pt" height="625.000000pt" viewBox="0 0 1000.000000 625.000000"
 preserveAspectRatio="xMidYMid meet">

<g transform="translate(0.000000,625.000000) scale(0.100000,-0.100000)"
fill="#000000" stroke="none">
<path d="M3645 5466 l-1340 -774 0 -1567 0 -1566 1340 -774 c737 -426 1347
-775 1355 -775 8 0 618 349 1355 774 l1340 774 0 1567 0 1567 -1340 774 c-737
425 -1347 774 -1355 774 -8 0 -618 -349 -1355 -774z m2590 -219 l1220 -705 0
-1417 0 -1417 -1227 -709 -1228 -709 -1227 709 -1228 709 0 1417 0 1417 1225
708 c674 390 1230 707 1235 705 6 -2 559 -320 1230 -708z"/>
<path d="M4200 4504 c-14 -14 -37 -34 -51 -45 -26 -18 -27 -18 -114 17 l-87
35 -164 -7 -164 -7 0 -41 c0 -23 -3 -71 -6 -107 l-7 -65 129 -13 c71 -7 139
-15 150 -18 12 -2 54 -40 93 -83 l71 -79 25 -1077 c14 -593 24 -1079 22 -1080
-1 -2 -54 -23 -117 -48 -124 -48 -128 -53 -116 -121 l6 -32 433 -6 c237 -3
433 -5 434 -4 1 1 -6 35 -16 76 l-16 74 -125 42 -125 42 -6 204 c-3 112 -7
340 -8 506 l-1 303 23 5 c12 3 131 21 264 40 l243 35 184 -135 c101 -74 188
-140 194 -147 5 -7 57 -224 115 -482 58 -257 108 -470 110 -472 10 -10 310
-53 321 -47 7 5 122 105 254 225 l241 216 -127 133 -127 132 -144 -217 c-79
-119 -150 -216 -156 -216 -24 0 -85 30 -85 43 0 6 -7 172 -15 367 l-15 354
-150 146 -151 145 175 130 c100 74 178 139 180 150 3 11 19 153 36 315 16 162
32 307 35 322 4 25 -19 49 -249 262 l-254 234 -183 6 c-101 3 -353 8 -559 11
l-376 6 -24 -27z m910 -265 c162 -29 299 -56 304 -60 5 -4 41 -124 81 -266
l72 -258 -111 -119 c-61 -65 -143 -153 -182 -194 l-70 -76 -367 24 c-354 23
-368 24 -372 44 -8 40 -67 865 -63 878 4 10 270 61 403 77 5 0 142 -22 305
-50z"/>
</g>
</svg>
